HIERARCHY
ROOT Hips
{
	OFFSET 0.00000 0.00000 0.00000
	CHANNELS 6 Xposition Yposition Zposition Zrotation Yrotation Xrotation 
	JOINT LHipJoint
	{
		OFFSET 0 0 0
		CHANNELS 3 Zrotation Yrotation Xrotation
		JOINT LeftHip
		{
			OFFSET 2.36090 -1.39315 1.24752
			CHANNELS 3 Zrotation Yrotation Xrotation
			JOINT LeftKnee
			{
				OFFSET 2.06810 -5.68207 0.00000
				CHANNELS 3 Zrotation Yrotation Xrotation
				JOINT LeftAnkle
				{
					OFFSET 2.46631 -6.77613 0.00000
					CHANNELS 3 Zrotation Yrotation Xrotation
					JOINT LeftToe
					{
						OFFSET 0.26031 -0.71520 1.99545
						CHANNELS 3 Zrotation Yrotation Xrotation
						End Site
						{
							OFFSET 0.00000 -0.00000 1.05957
						}
					}
				}
			}
		}
	}
	JOINT RHipJoint
	{
		OFFSET 0 0 0
		CHANNELS 3 Zrotation Yrotation Xrotation
		JOINT RightHip
		{
			OFFSET -2.25243 -1.39315 1.24752
			CHANNELS 3 Zrotation Yrotation Xrotation
			JOINT RightKnee
			{
				OFFSET -2.17343 -5.97145 0.00000
				CHANNELS 3 Zrotation Yrotation Xrotation
				JOINT RightAnkle
				{
					OFFSET -2.52372 -6.93386 0.00000
					CHANNELS 3 Zrotation Yrotation Xrotation
					JOINT RightToe
					{
						OFFSET -0.22538 -0.61923 2.11447
						CHANNELS 3 Zrotation Yrotation Xrotation
						End Site
						{
							OFFSET -0.00000 -0.00000 1.10506
						}
					}
				}
			}
		}
	}
	JOINT lowerback
	{
		OFFSET 0 0 0
		CHANNELS 3 Zrotation Yrotation Xrotation
		JOINT Chest
		{
			OFFSET 0.01594 2.13103 0.08007
			CHANNELS 3 Zrotation Yrotation Xrotation
			JOINT Chest2
			{
				OFFSET 0.01393 2.09723 0.18338
				CHANNELS 3 Zrotation Yrotation Xrotation
				JOINT lowerneck
				{
					OFFSET 0 0 0
					CHANNELS 3 Zrotation Yrotation Xrotation
					JOINT Neck
					{
						OFFSET 0.05351 1.38915 0.32494
						CHANNELS 3 Zrotation Yrotation Xrotation
						JOINT Head
						{
							OFFSET 0.00711 1.45992 -0.21666
							CHANNELS 3 Zrotation Yrotation Xrotation
							End Site
							{
								OFFSET -0.00433 1.47702 -0.11056
							}
						}
					}
				}
				JOINT LeftCollar
				{
					OFFSET 0 0 0
					CHANNELS 3 Zrotation Yrotation Xrotation
					JOINT LeftShoulder
					{
						OFFSET 2.87198 0.92249 0.11132
CHANNELS 3 Zrotation Xrotation Yrotation
						JOINT LeftElbow
						{
OFFSET 0 -5.527310 0.000000
CHANNELS 3 Zrotation Xrotation Yrotation
							JOINT LeftWrist
							{
OFFSET 0 -3.110590 0.000000
CHANNELS 3 Zrotation Xrotation Yrotation
								JOINT lhand
								{
									OFFSET 0 0 0
CHANNELS 3 Zrotation Xrotation Yrotation
									JOINT LFingers
									{
OFFSET 0 -0.419630 0.000000
CHANNELS 3 Zrotation Xrotation Yrotation
										End Site
										{
OFFSET 0 -0.338310 0.000000
										}
									}
								}
								JOINT LThumb
								{
OFFSET 0 0.000000 0.000000
CHANNELS 3 Zrotation Xrotation Yrotation
									End Site
									{
OFFSET 0 -0.343480 0.343480
									}
								}
							}
						}
					}
				}
				JOINT RightCollar
				{
					OFFSET 0 0 0
					CHANNELS 3 Zrotation Yrotation Xrotation
					JOINT RightShoulder
					{
						OFFSET -2.94710 0.68072 0.32187
CHANNELS 3 Zrotation Xrotation Yrotation
						JOINT RightElbow
						{
OFFSET 0 -5.253960 -0.000000
CHANNELS 3 Zrotation Xrotation Yrotation
							JOINT RightWrist
							{
OFFSET 0 -3.105670 0.000000
CHANNELS 3 Zrotation Xrotation Yrotation
								JOINT rhand
								{
									OFFSET 0 0 0
CHANNELS 3 Zrotation Xrotation Yrotation
									JOINT RFingers
									{
OFFSET 0 -0.498680 0.000000
CHANNELS 3 Zrotation Xrotation Yrotation
										End Site
										{
OFFSET 0 -0.402040 0.000000
										}
									}
								}
								JOINT RThumb
								{
OFFSET 0 0.000000 0.000000
CHANNELS 3 Zrotation Xrotation Yrotation
									End Site
									{
OFFSET 0 -0.408180 0.408180
									}
								}
							}
						}
					}
				}
			}
		}
	}
}
MOTION
Frames: 6
Frame Time: 0.008333333333333333
16.935159 15.346181 28.136120 -373.869352 -102.229978 398.100609 0.000000 0.000000 0.000000 -9.101603 -24.047258 -18.381982 0.015649 0.689229 1.894526 -0.368255 10.869608 -6.073515 0.980992 -6.304254 -17.670023 0.000000 0.000000 0.000000 -2.310078 30.633734 -37.411168 -4.660662 -12.991198 39.335474 -1.113752 -5.247418 -22.477008 -1.134574 6.764600 -19.019986 -4.397942 5.167063 -14.147932 -5.263731 7.096900 -6.621650 -2.001580 3.377821 1.025961 3.102103 2.825630 -23.823788 -1.615815 3.159951 16.720733 -0.601582 1.487522 9.239722 0.000000 0.000000 0.000000 7.783225 9.630687 0.945105 14.068528 -22.831698 2.855261 39.380915 -36.333899 -10.017881 0.000000 0.000000 0.000000 -7.125000 0.000000 0.000000 11.213921 42.577750 0.677058 0.000000 0.000000 0.000000 -3.829752 -8.621430 66.254682 -43.505290 -49.997385 -21.092335 -13.802667 -21.788912 19.445245 0.000000 0.000000 0.000000 7.125000 0.000000 0.000000 14.245785 49.422392 -1.569512
16.968162 15.348996 28.016177 -373.333165 -102.044955 397.377018 0.000000 0.000000 0.000000 -8.532077 -23.955621 -16.993730 0.000000 0.000000 0.000000 -0.433323 11.604743 -5.220163 1.045128 -6.501063 -18.245487 0.000000 0.000000 0.000000 -1.382856 30.557784 -37.243701 -4.672905 -13.005682 39.389890 -1.115712 -5.190359 -22.458573 -1.053696 6.526776 -18.320889 -3.788997 5.161045 -14.066151 -5.265923 7.013298 -6.631417 -2.353785 3.327774 1.048784 2.946554 2.788626 -23.738015 -1.352468 3.110775 17.233736 -0.491187 1.484851 9.396575 0.000000 0.000000 0.000000 8.242479 8.283364 -5.623925 14.918102 -24.030961 3.193077 37.759231 -34.772430 -9.637213 0.000000 0.000000 0.000000 -7.125000 0.000000 0.000000 9.691240 41.902358 0.747022 0.000000 0.000000 0.000000 -2.953104 -7.424056 61.986703 -39.087579 -47.506975 -17.767395 -19.764326 -19.055991 19.772382 0.000000 0.000000 0.000000 7.125000 0.000000 0.000000 8.631421 50.689593 -1.206572
16.997783 15.350448 27.898503 -371.955324 -101.872382 395.823297 0.000000 0.000000 0.000000 -7.679981 -24.079745 -16.669019 0.000000 0.000000 0.000000 -0.476377 12.144669 -5.301883 1.103814 -6.675244 -18.756871 0.000000 0.000000 0.000000 -0.397640 30.832765 -37.059427 -4.695788 -13.032817 39.491407 -1.100755 -5.278466 -22.384449 -0.989321 6.330302 -17.745983 -2.956934 5.164452 -14.003423 -5.253465 6.919728 -6.631938 -2.813217 3.269597 1.114204 2.882025 2.827406 -23.693593 -1.143315 3.142643 17.727670 -0.401472 1.519139 9.559055 0.000000 0.000000 0.000000 8.865998 7.021001 -11.795117 15.979963 -25.490909 3.638779 35.707910 -32.357255 -9.243984 0.000000 0.000000 0.000000 -7.125000 0.000000 0.000000 7.810657 41.190308 0.734381 0.000000 0.000000 0.000000 -2.019781 -6.370533 57.361999 -35.077988 -44.849248 -14.874516 -25.510355 -16.842162 20.101658 0.000000 0.000000 0.000000 7.125000 0.000000 0.000000 2.995538 52.034134 -0.502667
17.023939 15.347828 27.782327 -370.072374 -101.745851 393.763508 0.000000 0.000000 0.000000 -6.784435 -24.116101 -16.308138 0.000000 0.000000 0.000000 -0.521564 12.688266 -5.377542 1.163441 -6.847298 -19.263881 0.000000 0.000000 0.000000 0.606666 31.338885 -36.794675 -4.708986 -13.048301 39.549654 -1.076804 -5.476301 -22.301425 -0.941088 6.178659 -17.303758 -2.031957 5.174410 -13.957231 -5.209850 6.825200 -6.631790 -3.292196 3.210373 1.192680 2.860957 2.915253 -23.627301 -1.010585 3.243554 18.191804 -0.334988 1.579232 9.711417 0.000000 0.000000 0.000000 9.605930 5.908169 -17.561133 17.229010 -27.157512 4.191949 33.465015 -29.286654 -8.354506 0.000000 0.000000 0.000000 -7.125000 0.000000 0.000000 5.784175 39.900560 0.727090 0.000000 0.000000 0.000000 -1.156700 -5.446545 52.385791 -31.410868 -42.065664 -12.346603 -30.518701 -15.017539 20.375504 0.000000 0.000000 0.000000 7.125000 0.000000 0.000000 -2.132115 53.291968 0.440365
17.047916 15.345141 27.666964 -368.052726 -101.663791 391.580063 0.000000 0.000000 0.000000 -5.759347 -24.523950 -17.264018 0.018847 0.835591 2.296889 -0.540932 13.008847 -6.580889 1.189808 -6.921945 -19.484291 0.000000 0.000000 0.000000 1.604049 31.914025 -36.434932 -4.697325 -13.034578 39.498111 -1.055033 -5.670833 -22.236330 -0.880312 5.980878 -16.729107 -1.153998 5.149242 -13.945596 -5.102437 6.689165 -6.633613 -3.685506 3.131774 1.267312 2.908381 3.071792 -23.475852 -1.030803 3.453229 18.584330 -0.317820 1.676014 9.830156 0.000000 0.000000 0.000000 10.390326 4.972419 -22.720991 18.660027 -28.989538 4.867237 31.506832 -26.168848 -6.268892 0.000000 0.000000 0.000000 -7.125000 0.000000 0.000000 4.063769 37.298874 0.760230 0.000000 0.000000 0.000000 -0.517595 -4.680068 47.060603 -28.079097 -39.171824 -10.180163 -34.246492 -13.205578 20.826539 0.000000 0.000000 0.000000 7.125000 0.000000 0.000000 -6.106144 54.591526 1.455448
17.071598 15.345395 27.551201 -366.169913 -101.597280 389.573394 0.000000 0.000000 0.000000 -4.804273 -24.865392 -17.946146 0.052068 1.472711 4.050346 -0.566760 13.412723 -7.543199 1.170338 -6.867087 -19.322245 0.000000 0.000000 0.000000 2.568878 32.449849 -36.046496 -4.660686 -12.991220 39.335427 -1.031604 -5.874104 -22.163527 -0.816181 5.764856 -16.103763 -0.374135 5.073600 -13.976408 -4.962153 6.494128 -6.652898 -3.999554 3.024306 1.322680 3.089858 3.299127 -23.227876 -1.214218 3.756967 18.907178 -0.367012 1.806292 9.915764 0.000000 0.000000 0.000000 11.218108 4.172724 -27.351088 20.262867 -30.957634 5.665999 30.379100 -23.678134 -3.237278 0.000000 0.000000 0.000000 -7.125000 0.000000 0.000000 3.086904 33.719244 0.854804 0.000000 0.000000 0.000000 -0.101407 -4.041625 41.511266 -25.026885 -36.231035 -8.305987 -36.851523 -11.171028 21.644596 0.000000 0.000000 0.000000 7.125000 0.000000 0.000000 -8.977090 56.132028 2.465479
